<svg xmlns="http://www.w3.org/2000/svg" width="460.761" height="512" viewBox="0 0 460.761 512">
  <path id="goal" d="M457.086,68.828,435.207,49.563,457.086,30.3a10.8,10.8,0,0,0-7.137-18.906H359.41V7.5a7.5,7.5,0,1,0-15.008,0v101.2l-61.629,33.465a23.741,23.741,0,0,0-2.437-7.883l-8.684-16.953a23.741,23.741,0,0,0-31.914-10.3l-6.715,3.438a23.709,23.709,0,0,0-10.3,31.918l8.684,16.957a23.567,23.567,0,0,0,8.547,9.285c-4.609,6.207-6.8,13.84-9.047,21.77l-1.617,5.727a7.5,7.5,0,0,0,5.18,9.262,7.388,7.388,0,0,0,2.043.285,7.509,7.509,0,0,0,7.219-5.465l1.617-5.715c3.289-11.6,5.309-17.809,11.738-21.3l11.527-6.262,1.422-.727c.473-.242.914-.516,1.363-.785l82.156-44.613a31.758,31.758,0,0,1-15.148,25.5l-53.426,32.461c-.062.035-.125.07-.184.109l-16.629,10.1a7.5,7.5,0,0,0,7.172,13.164l-12.617,38.141L253.5,244.07l-25.078,10.277,7.227-25.547a7.506,7.506,0,0,0-14.445-4.086l-11.418,40.379a7.2,7.2,0,0,0-.27,1.633l-2.988,54.891c-.09,2.094.355,6.051-.613,8.094l-33.187,69.82H148.613a25.648,25.648,0,0,0-25.621,25.617v21.66a25.417,25.417,0,0,0-10.609-2.309H51.137a25.644,25.644,0,0,0-25.617,25.617v26.875H7.5A7.5,7.5,0,1,0,7.5,512H449.942a7.5,7.5,0,0,0,0-15.008H430.426V303.574a25.647,25.647,0,0,0-25.617-25.617h-45.4V147.047a46.8,46.8,0,0,0,7.539-40.105,7.506,7.506,0,0,0-7.539-5.508v-13.7h90.535a10.8,10.8,0,0,0,7.141-18.906ZM235.547,128.914a8.645,8.645,0,0,1,4.316-5.078l6.715-3.437a8.7,8.7,0,0,1,11.715,3.777l8.688,16.957a8.718,8.718,0,0,1-2.891,11.188l-2.445,1.324-5.16,2.645a8.714,8.714,0,0,1-11.715-3.781l-8.687-16.953a8.65,8.65,0,0,1-.535-6.641ZM220.469,401.84a25.471,25.471,0,0,0-8.238-2.2l8.238-10.941ZM256.1,341.375c3.609-4.324,4.605-9.375,5.41-13.445.2-.969,3.906-21.2,3.906-21.2s3.5,2.184,3.871,2.34a.8.8,0,0,1,.461.656l4.082,41.5H248.68Zm44.375-41.418-6.336,51.234h-5.23l-4.223-42.93a15.81,15.81,0,0,0-8.84-12.687l-7.547-4.785,5.027-27.863s21.18,25.16,21.672,25.8c4.383,5.7,5.883,7.98,5.477,11.23Zm-81.055,36.316a40.681,40.681,0,0,0,2.1-13.93l2.727-50.062,34.707-14.223L252.645,293c-.02.094-.039.191-.051.285l-5.219,28.895c-.68,2.992-1.273,7.531-3.141,10l-50.707,67.352h-4.18ZM40.527,470.114a10.619,10.619,0,0,1,10.609-10.605h61.246A10.622,10.622,0,0,1,123,470.114v26.879H40.527Zm97.473,0V425.149a10.623,10.623,0,0,1,10.613-10.609h61.246a10.619,10.619,0,0,1,10.609,10.609v71.844H138V470.114ZM415.418,303.575V496.993H332.953V452a7.506,7.506,0,0,0-15.012,0v44.992H235.476V376.841a10.619,10.619,0,0,1,10.609-10.605h61.246a10.619,10.619,0,0,1,10.609,10.605v37.617a7.5,7.5,0,0,0,15.008,0V303.575a10.623,10.623,0,0,1,10.613-10.609h8.266c.023,0,.051,0,.078,0s.051,0,.074,0H404.8a10.625,10.625,0,0,1,10.613,10.609Zm-71.855-25.617a25.647,25.647,0,0,0-25.617,25.617v49.961a25.4,25.4,0,0,0-8.7-2.23l6.121-49.5c1.2-9.648-3.719-16.043-8.477-22.23-.5-.656-29.672-35.289-29.672-35.289l17.895-54.1L344.4,160.239V277.958ZM359.41,72.723V26.407H438.8L421.7,41.462a10.8,10.8,0,0,0,0,16.211l17.1,15.055H359.41Zm0,0" fill="#ee8572"/>
</svg>
