<svg xmlns="http://www.w3.org/2000/svg" width="512" height="486.649" viewBox="0 0 512 486.649">
    <g id="home" transform="translate(0 -12.676)">
        <g id="Group_500" data-name="Group 500">
            <path id="Path_293" data-name="Path 293"
                  d="M503.4,228.884l-43.253-39.411V58.79a15.057,15.057,0,0,0-15.057-15.057H340.976A15.057,15.057,0,0,0,325.919,58.79v8.374l-52.236-47.6a26.135,26.135,0,0,0-35.367,0L8.6,228.885a26.255,26.255,0,0,0,17.685,45.661H62.972V484.267a15.057,15.057,0,0,0,15.057,15.057H203.942A15.057,15.057,0,0,0,219,484.267V356.931h74V484.268a15.057,15.057,0,0,0,15.057,15.057H433.965a15.056,15.056,0,0,0,15.056-15.057V274.547h36.7A26.255,26.255,0,0,0,503.4,228.884Zm-69.436,15.549a15.057,15.057,0,0,0-15.057,15.057V469.211H323.115V341.874a15.058,15.058,0,0,0-15.057-15.057H203.942a15.057,15.057,0,0,0-15.057,15.057V469.211h-95.8V259.49a15.057,15.057,0,0,0-15.057-15.057H36.245L256,44.193l74.836,68.191a15.056,15.056,0,0,0,25.2-11.13V73.847h74V196.123a15.055,15.055,0,0,0,4.916,11.13l40.8,37.18h-41.79Z"
                  fill="#35495e"/>
        </g>
    </g>
</svg>
