<svg xmlns="http://www.w3.org/2000/svg" width="512.016" height="512" viewBox="0 0 512.016 512">
  <g id="logout" transform="translate(0 -0.008)">
    <path id="Path_286" data-name="Path 286" d="M496,240.008H293.332a16,16,0,0,1,0-32H496a16,16,0,0,1,0,32Zm0,0" fill="#35495e"/>
    <path id="Path_287" data-name="Path 287" d="M416,320.008a16.01,16.01,0,0,1-11.309-27.328l68.7-68.691-68.7-68.7a16.005,16.005,0,0,1,22.637-22.633l80,80a16,16,0,0,1,0,22.633l-80,80A15.9,15.9,0,0,1,416,320.008Zm0,0" fill="#35495e"/>
    <path id="Path_288" data-name="Path 288" d="M170.668,512.008a43.963,43.963,0,0,1-13.227-1.984L29.054,467.25A43.059,43.059,0,0,1,0,426.676v-384A42.711,42.711,0,0,1,42.668.008,44,44,0,0,1,55.894,1.992L184.277,44.766A43.054,43.054,0,0,1,213.332,85.34v384a42.708,42.708,0,0,1-42.664,42.668Zm-128-480A10.7,10.7,0,0,0,32,42.676v384a11.087,11.087,0,0,0,7.4,10.281l127.785,42.582a11.588,11.588,0,0,0,3.48.469,10.7,10.7,0,0,0,10.664-10.668v-384a11.087,11.087,0,0,0-7.4-10.281L46.145,32.477a11.579,11.579,0,0,0-3.477-.469Zm0,0" fill="#35495e"/>
    <path id="Path_289" data-name="Path 289" d="M325.332,170.676a16.006,16.006,0,0,1-16-16v-96a26.7,26.7,0,0,0-26.664-26.668h-240a16,16,0,0,1,0-32h240a58.714,58.714,0,0,1,58.664,58.668v96A16.006,16.006,0,0,1,325.332,170.676Zm0,0" fill="#35495e"/>
    <path id="Path_290" data-name="Path 290" d="M282.668,448.008H197.332a16,16,0,0,1,0-32h85.336a26.7,26.7,0,0,0,26.664-26.668v-96a16,16,0,0,1,32,0v96A58.714,58.714,0,0,1,282.668,448.008Zm0,0" fill="#35495e"/>
  </g>
</svg>
