<svg xmlns="http://www.w3.org/2000/svg" width="469.334" height="469.341" viewBox="0 0 469.334 469.341">
  <g id="wallet" transform="translate(-0.003)">
    <g id="Group_499" data-name="Group 499">
      <g id="Group_498" data-name="Group 498">
        <path id="Path_284" data-name="Path 284" d="M448,236.639V170.674a42.576,42.576,0,0,0-39.271-42.323l-61.26-107a42.215,42.215,0,0,0-57.917-15.6l-210,122.26H42.67A42.709,42.709,0,0,0,0,170.674v256A42.709,42.709,0,0,0,42.67,469.341H405.337A42.709,42.709,0,0,0,448,426.674V360.709a31.948,31.948,0,0,0,21.333-30.035v-64A31.948,31.948,0,0,0,448,236.639Zm-64.06-108.632H290.973l69.729-40.6ZM350.1,68.9,248.574,128.007H206.461l133.112-77.5ZM300.3,24.184a20.628,20.628,0,0,1,15.844-2.135,20.915,20.915,0,0,1,12.813,9.906l.022.039-164.91,96.013H121.953ZM426.67,426.674a21.361,21.361,0,0,1-21.333,21.333H42.67a21.361,21.361,0,0,1-21.333-21.333v-256A21.361,21.361,0,0,1,42.67,149.341H405.337a21.361,21.361,0,0,1,21.333,21.333v64h-64a64,64,0,0,0,0,128h64v64Zm21.334-96a10.674,10.674,0,0,1-10.667,10.667H362.67a42.667,42.667,0,0,1,0-85.334h74.667A10.674,10.674,0,0,1,448,266.674Z" fill="#fff"/>
        <path id="Path_285" data-name="Path 285" d="M362.67,277.341A21.333,21.333,0,1,0,384,298.674,21.361,21.361,0,0,0,362.67,277.341Z" fill="#fff"/>
      </g>
    </g>
  </g>
</svg>
